<svg width="100" height="100" viewBox="0 0 100 100" fill="none" xmlns="http://www.w3.org/2000/svg">
<g clip-path="url(#clip0)">
<path fill-rule="evenodd" clip-rule="evenodd" d="M50.0341 0C77.6783 0 100 22.3217 100 49.9659C100 77.6099 77.6783 99.9316 50.0341 99.9316C22.3901 99.9316 0.0683594 77.6099 0.0683594 49.9659C0.0683594 22.3217 22.3901 0 50.0341 0ZM50.0341 6.97198C26.2406 6.97198 7.04035 26.1723 7.04035 49.9659C7.04035 73.7594 26.2406 92.9598 50.0341 92.9598C73.8279 92.9598 93.0282 73.7594 93.0282 49.9659C93.0282 26.1723 73.8279 6.97198 50.0341 6.97198ZM67.5415 38.191C67.5415 34.9372 65.0626 32.3034 61.809 32.3034C58.5554 32.3034 56.0765 34.9372 56.0765 38.191C56.0765 41.4446 58.5554 44.0783 61.809 44.0783C64.9078 44.0783 67.5415 41.4446 67.5415 38.191ZM37.9495 32.3034C41.2031 32.3034 43.6821 34.9372 43.6821 38.191C43.6821 41.4446 41.048 44.0783 37.9495 44.0783C34.696 44.0783 32.217 41.4446 32.217 38.191C32.217 34.9372 34.696 32.3034 37.9495 32.3034ZM24.1605 56.318C24.1605 56.318 28.8085 76.9241 50.0344 76.9241C71.105 76.9241 75.9081 56.318 75.9081 56.318H68.3164C68.3164 56.318 65.2177 69.7972 50.0344 69.7972C34.8508 69.7972 31.7523 56.318 31.7523 56.318H24.1605Z" fill="#101A71"/>
</g>
<defs>
<clipPath id="clip0">
<rect width="100" height="100" fill="white"/>
</clipPath>
</defs>
</svg>
